<mxfile host="app.diagrams.net" modified="2022-04-15T07:11:04.756Z" agent="5.0 (Windows NT 10.0; Win64; x64) AppleWebKit/537.36 (KHTML, like Gecko) Chrome/100.0.4896.75 Safari/537.36" etag="8V2QLUaq--3s5kYx2yxt" version="17.4.4" type="github">
  <diagram id="HMSvJ-J8nQST_XC1xlMr" name="Page-1">
    <mxGraphModel dx="1108" dy="450" grid="1" gridSize="10" guides="1" tooltips="1" connect="1" arrows="1" fold="1" page="1" pageScale="1" pageWidth="850" pageHeight="1100" math="0" shadow="0">
      <root>
        <mxCell id="0" />
        <mxCell id="1" parent="0" />
        <mxCell id="4baP56fRT0s41vNylvsc-1" value="&lt;font style=&quot;font-size: 14px&quot;&gt;The resident&lt;/font&gt;" style="shape=umlActor;verticalLabelPosition=bottom;labelBackgroundColor=#ffffff;verticalAlign=top;html=1;outlineConnect=0;fillColor=#FFE599;strokeColor=#000000;" vertex="1" parent="1">
          <mxGeometry x="930" y="195" width="40" height="70" as="geometry" />
        </mxCell>
        <mxCell id="4baP56fRT0s41vNylvsc-2" value="" style="endArrow=none;html=1;" edge="1" parent="1">
          <mxGeometry width="50" height="50" relative="1" as="geometry">
            <mxPoint x="950" y="325" as="sourcePoint" />
            <mxPoint x="950" y="285" as="targetPoint" />
            <Array as="points">
              <mxPoint x="950" y="305" />
            </Array>
          </mxGeometry>
        </mxCell>
        <mxCell id="4baP56fRT0s41vNylvsc-3" value="" style="endArrow=none;html=1;" edge="1" parent="1">
          <mxGeometry width="50" height="50" relative="1" as="geometry">
            <mxPoint x="260" y="330" as="sourcePoint" />
            <mxPoint x="1640" y="330" as="targetPoint" />
          </mxGeometry>
        </mxCell>
        <mxCell id="4baP56fRT0s41vNylvsc-4" value="" style="endArrow=classic;html=1;entryX=0.5;entryY=0;entryDx=0;entryDy=0;" edge="1" parent="1">
          <mxGeometry width="50" height="50" relative="1" as="geometry">
            <mxPoint x="260" y="330" as="sourcePoint" />
            <mxPoint x="260" y="390" as="targetPoint" />
            <Array as="points">
              <mxPoint x="260" y="370" />
            </Array>
          </mxGeometry>
        </mxCell>
        <mxCell id="4baP56fRT0s41vNylvsc-5" value="" style="endArrow=classic;html=1;entryX=0.5;entryY=0;entryDx=0;entryDy=0;" edge="1" parent="1" target="4baP56fRT0s41vNylvsc-12">
          <mxGeometry width="50" height="50" relative="1" as="geometry">
            <mxPoint x="510" y="330" as="sourcePoint" />
            <mxPoint x="500" y="390" as="targetPoint" />
            <Array as="points" />
          </mxGeometry>
        </mxCell>
        <mxCell id="4baP56fRT0s41vNylvsc-6" value="" style="endArrow=classic;html=1;" edge="1" parent="1" target="4baP56fRT0s41vNylvsc-7">
          <mxGeometry width="50" height="50" relative="1" as="geometry">
            <mxPoint x="800" y="330" as="sourcePoint" />
            <mxPoint x="900" y="380" as="targetPoint" />
            <Array as="points" />
          </mxGeometry>
        </mxCell>
        <mxCell id="4baP56fRT0s41vNylvsc-7" value="&lt;span&gt;&lt;font style=&quot;font-size: 18px&quot;&gt;&lt;b&gt;Manage and track UIN/VID&lt;/b&gt;&lt;/font&gt;&lt;/span&gt;" style="rounded=0;whiteSpace=wrap;html=1;fillColor=#FFFF00;" vertex="1" parent="1">
          <mxGeometry x="740" y="390" width="120" height="60" as="geometry" />
        </mxCell>
        <mxCell id="4baP56fRT0s41vNylvsc-8" value="" style="edgeStyle=orthogonalEdgeStyle;rounded=0;orthogonalLoop=1;jettySize=auto;html=1;entryX=0;entryY=0.5;entryDx=0;entryDy=0;" edge="1" parent="1" source="4baP56fRT0s41vNylvsc-9" target="4baP56fRT0s41vNylvsc-10">
          <mxGeometry relative="1" as="geometry">
            <mxPoint x="120" y="530" as="targetPoint" />
            <Array as="points">
              <mxPoint x="120" y="420" />
              <mxPoint x="120" y="515" />
            </Array>
          </mxGeometry>
        </mxCell>
        <mxCell id="4baP56fRT0s41vNylvsc-9" value="&lt;span&gt;&lt;font style=&quot;font-size: 18px&quot;&gt;&lt;b&gt;Get information&lt;/b&gt;&lt;/font&gt;&lt;/span&gt;" style="rounded=0;whiteSpace=wrap;html=1;fillColor=#CC00CC;" vertex="1" parent="1">
          <mxGeometry x="200" y="390" width="120" height="60" as="geometry" />
        </mxCell>
        <mxCell id="4baP56fRT0s41vNylvsc-10" value="&lt;font style=&quot;font-size: 14px&quot;&gt;Search for registration center on the basis of location hierarchy&lt;/font&gt;" style="rounded=0;whiteSpace=wrap;html=1;fillColor=#FF99FF;" vertex="1" parent="1">
          <mxGeometry x="200" y="480" width="120" height="70" as="geometry" />
        </mxCell>
        <mxCell id="4baP56fRT0s41vNylvsc-11" value="&lt;span&gt;&lt;font style=&quot;font-size: 14px&quot;&gt;Search the nearest registration center&lt;/font&gt;&lt;/span&gt;" style="rounded=0;whiteSpace=wrap;html=1;fillColor=#FF99FF;" vertex="1" parent="1">
          <mxGeometry x="200" y="640" width="120" height="70" as="geometry" />
        </mxCell>
        <mxCell id="4baP56fRT0s41vNylvsc-12" value="&lt;span&gt;&lt;font style=&quot;font-size: 18px&quot;&gt;&lt;b&gt;Issue credential&lt;/b&gt;&lt;/font&gt;&lt;/span&gt;" style="rounded=0;whiteSpace=wrap;html=1;fillColor=#007FFF;" vertex="1" parent="1">
          <mxGeometry x="450" y="390" width="120" height="60" as="geometry" />
        </mxCell>
        <mxCell id="4baP56fRT0s41vNylvsc-13" value="&lt;span&gt;&lt;font style=&quot;font-size: 14px&quot;&gt;Download a card&lt;/font&gt;&lt;/span&gt;" style="rounded=0;whiteSpace=wrap;html=1;fillColor=#99CCFF;" vertex="1" parent="1">
          <mxGeometry x="450" y="480" width="120" height="70" as="geometry" />
        </mxCell>
        <mxCell id="4baP56fRT0s41vNylvsc-14" value="&lt;font style=&quot;font-size: 14px&quot;&gt;Search for registration center on the basis of free text&lt;/font&gt;" style="rounded=0;whiteSpace=wrap;html=1;fillColor=#FF99FF;" vertex="1" parent="1">
          <mxGeometry x="200" y="560" width="120" height="70" as="geometry" />
        </mxCell>
        <mxCell id="4baP56fRT0s41vNylvsc-15" value="&lt;span&gt;&lt;font style=&quot;font-size: 14px&quot;&gt;Get list of acceptable document type&lt;/font&gt;&lt;/span&gt;" style="rounded=0;whiteSpace=wrap;html=1;fillColor=#FF99FF;" vertex="1" parent="1">
          <mxGeometry x="200" y="720" width="120" height="70" as="geometry" />
        </mxCell>
        <mxCell id="4baP56fRT0s41vNylvsc-16" value="&lt;span&gt;&lt;font style=&quot;font-size: 14px&quot;&gt;Order a physical card&lt;/font&gt;&lt;/span&gt;" style="rounded=0;whiteSpace=wrap;html=1;fillColor=#99CCFF;" vertex="1" parent="1">
          <mxGeometry x="450" y="560" width="120" height="70" as="geometry" />
        </mxCell>
        <mxCell id="4baP56fRT0s41vNylvsc-17" value="" style="endArrow=classic;html=1;entryX=0;entryY=0.5;entryDx=0;entryDy=0;" edge="1" parent="1" target="4baP56fRT0s41vNylvsc-14">
          <mxGeometry width="50" height="50" relative="1" as="geometry">
            <mxPoint x="119.99999999999977" y="500" as="sourcePoint" />
            <mxPoint x="360" y="560" as="targetPoint" />
            <Array as="points">
              <mxPoint x="120" y="595" />
            </Array>
          </mxGeometry>
        </mxCell>
        <mxCell id="4baP56fRT0s41vNylvsc-18" value="" style="endArrow=classic;html=1;entryX=0;entryY=0.5;entryDx=0;entryDy=0;" edge="1" parent="1">
          <mxGeometry width="50" height="50" relative="1" as="geometry">
            <mxPoint x="119.99999999999977" y="580" as="sourcePoint" />
            <mxPoint x="199.99999999999977" y="675" as="targetPoint" />
            <Array as="points">
              <mxPoint x="120" y="675" />
            </Array>
          </mxGeometry>
        </mxCell>
        <mxCell id="4baP56fRT0s41vNylvsc-19" value="" style="endArrow=classic;html=1;entryX=0;entryY=0.5;entryDx=0;entryDy=0;" edge="1" parent="1">
          <mxGeometry width="50" height="50" relative="1" as="geometry">
            <mxPoint x="119.99999999999977" y="660" as="sourcePoint" />
            <mxPoint x="199.99999999999977" y="750" as="targetPoint" />
            <Array as="points">
              <mxPoint x="120" y="750" />
            </Array>
          </mxGeometry>
        </mxCell>
        <mxCell id="4baP56fRT0s41vNylvsc-20" value="" style="edgeStyle=orthogonalEdgeStyle;rounded=0;orthogonalLoop=1;jettySize=auto;html=1;entryX=0;entryY=0.5;entryDx=0;entryDy=0;" edge="1" parent="1">
          <mxGeometry relative="1" as="geometry">
            <mxPoint x="450" y="420" as="sourcePoint" />
            <mxPoint x="450" y="515" as="targetPoint" />
            <Array as="points">
              <mxPoint x="370" y="420" />
              <mxPoint x="370" y="515" />
            </Array>
          </mxGeometry>
        </mxCell>
        <mxCell id="4baP56fRT0s41vNylvsc-21" value="" style="endArrow=classic;html=1;entryX=0;entryY=0.5;entryDx=0;entryDy=0;" edge="1" parent="1">
          <mxGeometry width="50" height="50" relative="1" as="geometry">
            <mxPoint x="370" y="500" as="sourcePoint" />
            <mxPoint x="450" y="595" as="targetPoint" />
            <Array as="points">
              <mxPoint x="370" y="595" />
            </Array>
          </mxGeometry>
        </mxCell>
        <mxCell id="4baP56fRT0s41vNylvsc-22" value="" style="endArrow=classic;html=1;entryX=0;entryY=0.5;entryDx=0;entryDy=0;" edge="1" parent="1" source="4baP56fRT0s41vNylvsc-38">
          <mxGeometry width="50" height="50" relative="1" as="geometry">
            <mxPoint x="370" y="580" as="sourcePoint" />
            <mxPoint x="450" y="675" as="targetPoint" />
            <Array as="points">
              <mxPoint x="370" y="675" />
            </Array>
          </mxGeometry>
        </mxCell>
        <mxCell id="4baP56fRT0s41vNylvsc-23" value="&lt;span&gt;&lt;font style=&quot;font-size: 14px&quot;&gt;Share with a partner&lt;/font&gt;&lt;/span&gt;" style="rounded=0;whiteSpace=wrap;html=1;fillColor=#99CCFF;strokeColor=#000000;" vertex="1" parent="1">
          <mxGeometry x="450" y="640" width="120" height="70" as="geometry" />
        </mxCell>
        <mxCell id="4baP56fRT0s41vNylvsc-24" value="&lt;span style=&quot;font-size: 14px&quot;&gt;Lock/unlock authentication type&lt;/span&gt;" style="rounded=0;whiteSpace=wrap;html=1;fillColor=#FFFF99;" vertex="1" parent="1">
          <mxGeometry x="680" y="480" width="120" height="70" as="geometry" />
        </mxCell>
        <mxCell id="4baP56fRT0s41vNylvsc-25" value="&lt;span style=&quot;font-size: 14px&quot;&gt;Self update demographic (non-biometric) data&lt;/span&gt;" style="rounded=0;whiteSpace=wrap;html=1;fillColor=#FFFF99;strokeColor=#000000;" vertex="1" parent="1">
          <mxGeometry x="680" y="560" width="120" height="70" as="geometry" />
        </mxCell>
        <mxCell id="4baP56fRT0s41vNylvsc-26" value="&lt;span style=&quot;font-size: 14px&quot;&gt;Self update biometric data&lt;/span&gt;&lt;span&gt;&lt;font&gt;&lt;br&gt;&lt;/font&gt;&lt;/span&gt;" style="rounded=0;whiteSpace=wrap;html=1;fillColor=#FFFF99;" vertex="1" parent="1">
          <mxGeometry x="680" y="640" width="120" height="70" as="geometry" />
        </mxCell>
        <mxCell id="4baP56fRT0s41vNylvsc-27" value="" style="endArrow=classic;html=1;entryX=0;entryY=0.5;entryDx=0;entryDy=0;" edge="1" parent="1">
          <mxGeometry width="50" height="50" relative="1" as="geometry">
            <mxPoint x="600" y="500" as="sourcePoint" />
            <mxPoint x="680" y="595" as="targetPoint" />
            <Array as="points">
              <mxPoint x="600" y="595" />
            </Array>
          </mxGeometry>
        </mxCell>
        <mxCell id="4baP56fRT0s41vNylvsc-28" value="" style="endArrow=classic;html=1;entryX=0;entryY=0.5;entryDx=0;entryDy=0;" edge="1" parent="1">
          <mxGeometry width="50" height="50" relative="1" as="geometry">
            <mxPoint x="600" y="580" as="sourcePoint" />
            <mxPoint x="680" y="675" as="targetPoint" />
            <Array as="points">
              <mxPoint x="600" y="675" />
            </Array>
          </mxGeometry>
        </mxCell>
        <mxCell id="4baP56fRT0s41vNylvsc-29" value="&lt;span style=&quot;font-size: 14px&quot;&gt;Generate and manage VID&lt;/span&gt;" style="rounded=0;whiteSpace=wrap;html=1;fillColor=#FFFF99;" vertex="1" parent="1">
          <mxGeometry x="810" y="480" width="120" height="70" as="geometry" />
        </mxCell>
        <mxCell id="4baP56fRT0s41vNylvsc-30" value="&lt;span&gt;&lt;font style=&quot;font-size: 14px&quot;&gt;View history:&lt;br&gt;-ID consumption&lt;br&gt;-ID operations&lt;br&gt;&lt;/font&gt;&lt;/span&gt;" style="rounded=0;whiteSpace=wrap;html=1;fillColor=#FFFF99;" vertex="1" parent="1">
          <mxGeometry x="810" y="560" width="120" height="70" as="geometry" />
        </mxCell>
        <mxCell id="4baP56fRT0s41vNylvsc-31" value="" style="edgeStyle=orthogonalEdgeStyle;rounded=0;orthogonalLoop=1;jettySize=auto;html=1;exitX=1;exitY=0.5;exitDx=0;exitDy=0;entryX=1;entryY=0.5;entryDx=0;entryDy=0;" edge="1" parent="1" source="4baP56fRT0s41vNylvsc-7" target="4baP56fRT0s41vNylvsc-29">
          <mxGeometry relative="1" as="geometry">
            <mxPoint x="690" y="430" as="sourcePoint" />
            <mxPoint x="950" y="525" as="targetPoint" />
            <Array as="points">
              <mxPoint x="1000" y="420" />
              <mxPoint x="1000" y="515" />
            </Array>
          </mxGeometry>
        </mxCell>
        <mxCell id="4baP56fRT0s41vNylvsc-32" value="" style="endArrow=classic;html=1;" edge="1" parent="1">
          <mxGeometry width="50" height="50" relative="1" as="geometry">
            <mxPoint x="1000" y="580" as="sourcePoint" />
            <mxPoint x="930" y="670" as="targetPoint" />
            <Array as="points">
              <mxPoint x="1000" y="670" />
            </Array>
          </mxGeometry>
        </mxCell>
        <mxCell id="4baP56fRT0s41vNylvsc-33" value="&lt;b&gt;S&lt;/b&gt;" style="ellipse;whiteSpace=wrap;html=1;aspect=fixed;fillColor=#FF6666;" vertex="1" parent="1">
          <mxGeometry x="400" y="505" width="20" height="20" as="geometry" />
        </mxCell>
        <mxCell id="4baP56fRT0s41vNylvsc-34" value="&lt;b&gt;S&lt;/b&gt;" style="ellipse;whiteSpace=wrap;html=1;aspect=fixed;fillColor=#FF6666;" vertex="1" parent="1">
          <mxGeometry x="400" y="585" width="20" height="20" as="geometry" />
        </mxCell>
        <mxCell id="4baP56fRT0s41vNylvsc-35" value="" style="endArrow=classic;html=1;entryX=0;entryY=0.5;entryDx=0;entryDy=0;" edge="1" parent="1">
          <mxGeometry width="50" height="50" relative="1" as="geometry">
            <mxPoint x="370" y="580" as="sourcePoint" />
            <mxPoint x="450" y="675" as="targetPoint" />
            <Array as="points">
              <mxPoint x="370" y="675" />
            </Array>
          </mxGeometry>
        </mxCell>
        <mxCell id="4baP56fRT0s41vNylvsc-36" value="" style="endArrow=classic;html=1;entryX=1;entryY=0.5;entryDx=0;entryDy=0;" edge="1" parent="1" target="4baP56fRT0s41vNylvsc-30">
          <mxGeometry width="50" height="50" relative="1" as="geometry">
            <mxPoint x="1000" y="510" as="sourcePoint" />
            <mxPoint x="939.6585492351883" y="597.1306624726853" as="targetPoint" />
            <Array as="points">
              <mxPoint x="1000" y="595" />
            </Array>
          </mxGeometry>
        </mxCell>
        <mxCell id="4baP56fRT0s41vNylvsc-37" value="" style="endArrow=classic;html=1;entryX=0;entryY=0.5;entryDx=0;entryDy=0;" edge="1" parent="1">
          <mxGeometry width="50" height="50" relative="1" as="geometry">
            <mxPoint x="600" y="500" as="sourcePoint" />
            <mxPoint x="680" y="595" as="targetPoint" />
            <Array as="points">
              <mxPoint x="600" y="595" />
            </Array>
          </mxGeometry>
        </mxCell>
        <mxCell id="4baP56fRT0s41vNylvsc-38" value="&lt;b&gt;S&lt;/b&gt;" style="ellipse;whiteSpace=wrap;html=1;aspect=fixed;fillColor=#FF6666;" vertex="1" parent="1">
          <mxGeometry x="400" y="665" width="20" height="20" as="geometry" />
        </mxCell>
        <mxCell id="4baP56fRT0s41vNylvsc-39" value="&lt;span&gt;&lt;font style=&quot;font-size: 18px&quot;&gt;&lt;b&gt;Book a visit&lt;/b&gt;&lt;/font&gt;&lt;/span&gt;" style="rounded=0;whiteSpace=wrap;html=1;fillColor=#9933FF;" vertex="1" parent="1">
          <mxGeometry x="1025" y="390" width="125" height="70" as="geometry" />
        </mxCell>
        <mxCell id="4baP56fRT0s41vNylvsc-40" value="&lt;span style=&quot;font-size: 14px&quot;&gt;Booking for retrieving lost UIN&lt;/span&gt;" style="rounded=0;whiteSpace=wrap;html=1;fillColor=#E5CCFF;" vertex="1" parent="1">
          <mxGeometry x="1025" y="550" width="130" height="70" as="geometry" />
        </mxCell>
        <mxCell id="4baP56fRT0s41vNylvsc-41" value="&lt;span&gt;&lt;font style=&quot;font-size: 14px&quot;&gt;Book an appointment for other purpose&lt;/font&gt;&lt;/span&gt;" style="rounded=0;whiteSpace=wrap;html=1;fillColor=#E5CCFF;" vertex="1" parent="1">
          <mxGeometry x="1025" y="630" width="130" height="70" as="geometry" />
        </mxCell>
        <mxCell id="4baP56fRT0s41vNylvsc-42" value="&lt;span style=&quot;font-size: 14px&quot;&gt;Booking for pre-registration&lt;/span&gt;" style="rounded=0;whiteSpace=wrap;html=1;fillColor=#E5CCFF;" vertex="1" parent="1">
          <mxGeometry x="1025" y="470" width="130" height="70" as="geometry" />
        </mxCell>
        <mxCell id="4baP56fRT0s41vNylvsc-43" value="" style="endArrow=classic;html=1;" edge="1" parent="1">
          <mxGeometry width="50" height="50" relative="1" as="geometry">
            <mxPoint x="1215" y="420" as="sourcePoint" />
            <mxPoint x="1155" y="510" as="targetPoint" />
            <Array as="points">
              <mxPoint x="1215" y="510" />
            </Array>
          </mxGeometry>
        </mxCell>
        <mxCell id="4baP56fRT0s41vNylvsc-44" value="" style="endArrow=classic;html=1;entryX=1;entryY=0.5;entryDx=0;entryDy=0;" edge="1" parent="1" target="4baP56fRT0s41vNylvsc-40">
          <mxGeometry width="50" height="50" relative="1" as="geometry">
            <mxPoint x="1215.0000000000005" y="490" as="sourcePoint" />
            <mxPoint x="1145" y="580" as="targetPoint" />
            <Array as="points">
              <mxPoint x="1215" y="585" />
            </Array>
          </mxGeometry>
        </mxCell>
        <mxCell id="4baP56fRT0s41vNylvsc-45" value="" style="endArrow=classic;html=1;" edge="1" parent="1">
          <mxGeometry width="50" height="50" relative="1" as="geometry">
            <mxPoint x="1215.0000000000005" y="560" as="sourcePoint" />
            <mxPoint x="1155" y="665" as="targetPoint" />
            <Array as="points">
              <mxPoint x="1215" y="665" />
            </Array>
          </mxGeometry>
        </mxCell>
        <mxCell id="4baP56fRT0s41vNylvsc-46" value="" style="endArrow=none;html=1;" edge="1" parent="1">
          <mxGeometry width="50" height="50" relative="1" as="geometry">
            <mxPoint x="1150" y="420" as="sourcePoint" />
            <mxPoint x="1215" y="420" as="targetPoint" />
          </mxGeometry>
        </mxCell>
        <mxCell id="4baP56fRT0s41vNylvsc-47" value="&lt;span style=&quot;font-size: 18px&quot;&gt;&lt;b&gt;Verify mobile number/email ID&lt;/b&gt;&lt;/span&gt;" style="rounded=0;whiteSpace=wrap;html=1;fillColor=#EA6B66;" vertex="1" parent="1">
          <mxGeometry x="1235" y="390" width="120" height="70" as="geometry" />
        </mxCell>
        <mxCell id="4baP56fRT0s41vNylvsc-48" value="" style="endArrow=classic;html=1;entryX=0.5;entryY=0;entryDx=0;entryDy=0;" edge="1" parent="1">
          <mxGeometry width="50" height="50" relative="1" as="geometry">
            <mxPoint x="1294.7900000000009" y="330" as="sourcePoint" />
            <mxPoint x="1294.29" y="390" as="targetPoint" />
          </mxGeometry>
        </mxCell>
        <mxCell id="4baP56fRT0s41vNylvsc-49" value="&lt;span style=&quot;font-size: 18px&quot;&gt;&lt;b&gt;Get/track my UIN&lt;/b&gt;&lt;/span&gt;" style="rounded=0;whiteSpace=wrap;html=1;fillColor=#97D077;" vertex="1" parent="1">
          <mxGeometry x="1425" y="390" width="120" height="70" as="geometry" />
        </mxCell>
        <mxCell id="4baP56fRT0s41vNylvsc-50" value="" style="endArrow=classic;html=1;entryX=0.5;entryY=0;entryDx=0;entryDy=0;" edge="1" parent="1">
          <mxGeometry width="50" height="50" relative="1" as="geometry">
            <mxPoint x="1484.7899999999986" y="330" as="sourcePoint" />
            <mxPoint x="1484.29" y="390" as="targetPoint" />
          </mxGeometry>
        </mxCell>
        <mxCell id="4baP56fRT0s41vNylvsc-51" value="" style="edgeStyle=orthogonalEdgeStyle;rounded=0;orthogonalLoop=1;jettySize=auto;html=1;entryX=0;entryY=0.5;entryDx=0;entryDy=0;" edge="1" parent="1" target="4baP56fRT0s41vNylvsc-24">
          <mxGeometry relative="1" as="geometry">
            <mxPoint x="740" y="505" as="targetPoint" />
            <Array as="points">
              <mxPoint x="600" y="410" />
              <mxPoint x="600" y="515" />
            </Array>
            <mxPoint x="740" y="410" as="sourcePoint" />
          </mxGeometry>
        </mxCell>
        <mxCell id="4baP56fRT0s41vNylvsc-52" value="&lt;b&gt;S&lt;/b&gt;" style="ellipse;whiteSpace=wrap;html=1;aspect=fixed;fillColor=#FF6666;" vertex="1" parent="1">
          <mxGeometry x="630" y="505" width="20" height="20" as="geometry" />
        </mxCell>
        <mxCell id="4baP56fRT0s41vNylvsc-53" value="&lt;b&gt;&lt;font style=&quot;font-size: 18px&quot;&gt;Notification section&lt;/font&gt;&lt;/b&gt;" style="rounded=0;whiteSpace=wrap;html=1;fillColor=#FFFF99;" vertex="1" parent="1">
          <mxGeometry x="1580" y="390" width="120" height="70" as="geometry" />
        </mxCell>
        <mxCell id="4baP56fRT0s41vNylvsc-54" value="" style="endArrow=classic;html=1;entryX=0.5;entryY=0;entryDx=0;entryDy=0;" edge="1" parent="1" target="4baP56fRT0s41vNylvsc-53">
          <mxGeometry width="50" height="50" relative="1" as="geometry">
            <mxPoint x="1640" y="330" as="sourcePoint" />
            <mxPoint x="1494.2900000000004" y="400" as="targetPoint" />
          </mxGeometry>
        </mxCell>
        <mxCell id="4baP56fRT0s41vNylvsc-55" value="&lt;span style=&quot;font-size: 14px&quot;&gt;View/download credential that was requested before&lt;/span&gt;" style="rounded=0;whiteSpace=wrap;html=1;fillColor=#FFFF99;" vertex="1" parent="1">
          <mxGeometry x="1580" y="630" width="120" height="70" as="geometry" />
        </mxCell>
        <mxCell id="4baP56fRT0s41vNylvsc-56" value="&lt;span style=&quot;font-size: 14px&quot;&gt;Outside:Track status of a service request&lt;/span&gt;" style="rounded=0;whiteSpace=wrap;html=1;fillColor=#FFFF99;" vertex="1" parent="1">
          <mxGeometry x="1580" y="550" width="120" height="70" as="geometry" />
        </mxCell>
        <mxCell id="4baP56fRT0s41vNylvsc-57" value="&lt;span style=&quot;font-size: 14px&quot;&gt;Status of pending request&lt;/span&gt;" style="rounded=0;whiteSpace=wrap;html=1;fillColor=#FFFF99;" vertex="1" parent="1">
          <mxGeometry x="1580" y="470" width="120" height="70" as="geometry" />
        </mxCell>
        <mxCell id="4baP56fRT0s41vNylvsc-58" value="" style="endArrow=classic;html=1;" edge="1" parent="1">
          <mxGeometry width="50" height="50" relative="1" as="geometry">
            <mxPoint x="1760" y="420" as="sourcePoint" />
            <mxPoint x="1700" y="505" as="targetPoint" />
            <Array as="points">
              <mxPoint x="1760" y="505" />
            </Array>
          </mxGeometry>
        </mxCell>
        <mxCell id="4baP56fRT0s41vNylvsc-59" value="" style="endArrow=classic;html=1;" edge="1" parent="1">
          <mxGeometry width="50" height="50" relative="1" as="geometry">
            <mxPoint x="1760" y="560" as="sourcePoint" />
            <mxPoint x="1700" y="665" as="targetPoint" />
            <Array as="points">
              <mxPoint x="1760" y="665" />
            </Array>
          </mxGeometry>
        </mxCell>
        <mxCell id="4baP56fRT0s41vNylvsc-60" value="" style="endArrow=none;html=1;" edge="1" parent="1">
          <mxGeometry width="50" height="50" relative="1" as="geometry">
            <mxPoint x="1700" y="420" as="sourcePoint" />
            <mxPoint x="1760" y="420" as="targetPoint" />
          </mxGeometry>
        </mxCell>
        <mxCell id="4baP56fRT0s41vNylvsc-61" value="" style="endArrow=classic;html=1;" edge="1" parent="1">
          <mxGeometry width="50" height="50" relative="1" as="geometry">
            <mxPoint x="1760" y="490" as="sourcePoint" />
            <mxPoint x="1700" y="595" as="targetPoint" />
            <Array as="points">
              <mxPoint x="1760" y="595" />
            </Array>
          </mxGeometry>
        </mxCell>
        <mxCell id="4baP56fRT0s41vNylvsc-62" value="&lt;span style=&quot;font-size: 14px&quot;&gt;Book appointment to update UIN&lt;/span&gt;&lt;span&gt;&lt;font&gt;&lt;br&gt;&lt;/font&gt;&lt;/span&gt;" style="rounded=0;whiteSpace=wrap;html=1;fillColor=#FFFF99;" vertex="1" parent="1">
          <mxGeometry x="810" y="640" width="120" height="70" as="geometry" />
        </mxCell>
        <mxCell id="4baP56fRT0s41vNylvsc-63" value="&lt;font style=&quot;font-size: 14px&quot;&gt;AID + full name + DOB +OTP&lt;/font&gt;" style="text;html=1;strokeColor=none;fillColor=none;align=center;verticalAlign=middle;whiteSpace=wrap;rounded=0;" vertex="1" parent="1">
          <mxGeometry x="1415" y="290" width="140" height="20" as="geometry" />
        </mxCell>
        <mxCell id="4baP56fRT0s41vNylvsc-64" value="&lt;font style=&quot;font-size: 14px&quot;&gt;UIN/VID + OTP&lt;/font&gt;" style="text;html=1;strokeColor=none;fillColor=none;align=center;verticalAlign=middle;whiteSpace=wrap;rounded=0;" vertex="1" parent="1">
          <mxGeometry x="740" y="305" width="140" height="20" as="geometry" />
        </mxCell>
        <mxCell id="4baP56fRT0s41vNylvsc-65" value="&lt;font style=&quot;font-size: 14px&quot;&gt;UIN +OTP&lt;/font&gt;" style="text;html=1;strokeColor=none;fillColor=none;align=center;verticalAlign=middle;whiteSpace=wrap;rounded=0;" vertex="1" parent="1">
          <mxGeometry x="1250" y="300" width="90" height="20" as="geometry" />
        </mxCell>
        <mxCell id="4baP56fRT0s41vNylvsc-66" value="" style="endArrow=classic;html=1;entryX=0.5;entryY=0;entryDx=0;entryDy=0;" edge="1" parent="1" target="4baP56fRT0s41vNylvsc-39">
          <mxGeometry width="50" height="50" relative="1" as="geometry">
            <mxPoint x="1088" y="330" as="sourcePoint" />
            <mxPoint x="1055" y="590" as="targetPoint" />
          </mxGeometry>
        </mxCell>
        <mxCell id="4baP56fRT0s41vNylvsc-67" value="&lt;!--StartFragment--&gt;&lt;span style=&quot;font-family: Helvetica; font-size: 14px; font-style: normal; font-variant-ligatures: normal; font-variant-caps: normal; font-weight: 400; letter-spacing: normal; orphans: 2; text-align: center; text-indent: 0px; text-transform: none; widows: 2; word-spacing: 0px; -webkit-text-stroke-width: 0px; background-color: rgb(248, 249, 250); text-decoration-style: initial; text-decoration-color: initial; float: none; display: inline !important;&quot;&gt;Email/phone +OTP&lt;/span&gt;&lt;!--EndFragment--&gt;" style="text;whiteSpace=wrap;html=1;" vertex="1" parent="1">
          <mxGeometry x="1020" y="300" width="140" height="30" as="geometry" />
        </mxCell>
        <mxCell id="4baP56fRT0s41vNylvsc-68" value="&lt;font style=&quot;font-size: 14px&quot;&gt;UIN/VID + OTP&lt;/font&gt;" style="text;html=1;strokeColor=none;fillColor=none;align=center;verticalAlign=middle;whiteSpace=wrap;rounded=0;" vertex="1" parent="1">
          <mxGeometry x="450" y="300" width="110" height="20" as="geometry" />
        </mxCell>
        <mxCell id="4baP56fRT0s41vNylvsc-69" value="&lt;font style=&quot;font-size: 14px&quot;&gt;Open to all&lt;/font&gt;" style="text;html=1;strokeColor=none;fillColor=none;align=center;verticalAlign=middle;whiteSpace=wrap;rounded=0;" vertex="1" parent="1">
          <mxGeometry x="240" y="305" width="110" height="20" as="geometry" />
        </mxCell>
      </root>
    </mxGraphModel>
  </diagram>
</mxfile>
